ffmpeg version 4.2.7-0ubuntu0.1 Copyright (c) 2000-2022 the FFmpeg developers
  built with gcc 9 (Ubuntu 9.4.0-1ubuntu1~20.04.1)
  configuration: --prefix=/usr --extra-version=0ubuntu0.1 --toolchain=hardened --libdir=/usr/lib/x86_64-linux-gnu --incdir=/usr/include/x86_64-linux-gnu --arch=amd64 --enable-gpl --disable-stripping --enable-avresample --disable-filter=resample --enable-avisynth --enable-gnutls --enable-ladspa --enable-libaom --enable-libass --enable-libbluray --enable-libbs2b --enable-libcaca --enable-libcdio --enable-libcodec2 --enable-libflite --enable-libfontconfig --enable-libfreetype --enable-libfribidi --enable-libgme --enable-libgsm --enable-libjack --enable-libmp3lame --enable-libmysofa --enable-libopenjpeg --enable-libopenmpt --enable-libopus --enable-libpulse --enable-librsvg --enable-librubberband --enable-libshine --enable-libsnappy --enable-libsoxr --enable-libspeex --enable-libssh --enable-libtheora --enable-libtwolame --enable-libvidstab --enable-libvorbis --enable-libvpx --enable-libwavpack --enable-libwebp --enable-libx265 --enable-libxml2 --enable-libxvid --enable-libzmq --enable-libzvbi --enable-lv2 --enable-omx --enable-openal --enable-opencl --enable-opengl --enable-sdl2 --enable-libdc1394 --enable-libdrm --enable-libiec61883 --enable-nvenc --enable-chromaprint --enable-frei0r --enable-libx264 --enable-shared
  libavutil      56. 31.100 / 56. 31.100
  libavcodec     58. 54.100 / 58. 54.100
  libavformat    58. 29.100 / 58. 29.100
  libavdevice    58.  8.100 / 58.  8.100
  libavfilter     7. 57.100 /  7. 57.100
  libavresample   4.  0.  0 /  4.  0.  0
  libswscale      5.  5.100 /  5.  5.100
  libswresample   3.  5.100 /  3.  5.100
  libpostproc    55.  5.100 / 55.  5.100
Routing option strict to both codec and muxer layer
[h264 @ 0x5565f23237c0] Reinit context to 848x480, pix_fmt: yuv420p
Input #0, mov,mp4,m4a,3gp,3g2,mj2, from '/var/www/html/project/media/video/original/5e711bfa-fe93-4078-8cf3-902898038267.mov':
  Metadata:
    major_brand     : qt  
    minor_version   : 0
    compatible_brands: qt  
    creation_time   : 2025-12-24T08:05:24.000000Z
    com.apple.quicktime.creationdate: 2025-12-24T09:02:38+01:00
  Duration: 00:00:39.67, start: 0.000000, bitrate: 1784 kb/s
    Stream #0:0(und): Audio: aac (LC) (mp4a / 0x6134706D), 48000 Hz, stereo, fltp, 256 kb/s (default)
    Metadata:
      creation_time   : 2025-12-24T08:05:24.000000Z
      handler_name    : Core Media Audio
    Stream #0:1(und): Video: h264 (High), 1 reference frame (avc1 / 0x31637661), yuv420p(tv, bt709, progressive, left), 848x478 (848x480), 1523 kb/s, 29.90 fps, 30 tbr, 90k tbn, 180k tbc (default)
    Metadata:
      creation_time   : 2025-12-24T08:05:24.000000Z
      handler_name    : Core Media Video
      encoder         : 'avc1'
Input #1, png_pipe, from '/var/www/html/project/static/images/templates/logo.png':
  Duration: N/A, bitrate: N/A
    Stream #1:0: Video: png, 1 reference frame, rgba(pc), 1920x1080 [SAR 2835:2835 DAR 16:9], 25 tbr, 25 tbn, 25 tbc
[Parsed_scale_0 @ 0x5565f239fa00] w:1280 h:720 flags:'bilinear' interl:0
[Parsed_scale_2 @ 0x5565f2325d00] w:1280 h:720 flags:'bilinear' interl:0
Stream mapping:
  Stream #0:1 (h264) -> scale (graph 0)
  Stream #1:0 (png) -> scale (graph 0)
  overlay (graph 0) -> Stream #0:0 (libx264)
  Stream #0:0 -> #0:1 (aac (native) -> aac (native))
Press [q] to stop, [?] for help
[graph_1_in_0_0 @ 0x5565f238a440] tb:1/48000 samplefmt:fltp samplerate:48000 chlayout:0x3
[h264 @ 0x5565f23a2c40] Reinit context to 848x480, pix_fmt: yuv420p
[Parsed_scale_0 @ 0x5565f23905c0] w:1280 h:720 flags:'bilinear' interl:0
[Parsed_scale_2 @ 0x5565f2a38280] w:1280 h:720 flags:'bilinear' interl:0
[graph 0 input from stream 0:1 @ 0x5565f2a3a600] w:848 h:478 pixfmt:yuv420p tb:1/90000 fr:30/1 sar:0/1 sws_param:flags=2
[graph 0 input from stream 1:0 @ 0x5565f2a3b640] w:1920 h:1080 pixfmt:rgba tb:1/25 fr:25/1 sar:2835/2835 sws_param:flags=2
[Parsed_scale_0 @ 0x5565f23905c0] w:848 h:478 fmt:yuv420p sar:0/1 -> w:1280 h:720 fmt:yuv420p sar:0/1 flags:0x2
[Parsed_setsar_1 @ 0x5565f2393d80] w:1280 h:720 sar:0/1 dar:16/9 -> sar:1/1 dar:16/9
[Parsed_scale_2 @ 0x5565f2a38280] w:1920 h:1080 fmt:rgba sar:2835/2835 -> w:1280 h:720 fmt:yuva420p sar:1/1 flags:0x2
[Parsed_setsar_3 @ 0x5565f2a38c80] w:1280 h:720 sar:1/1 dar:16/9 -> sar:1/1 dar:16/9
[Parsed_overlay_4 @ 0x5565f2a39880] main w:1280 h:720 fmt:yuv420p overlay w:1280 h:720 fmt:yuva420p
[Parsed_overlay_4 @ 0x5565f2a39880] [framesync @ 0x5565f2a399a8] Selected 1/90000 time base
[Parsed_overlay_4 @ 0x5565f2a39880] [framesync @ 0x5565f2a399a8] Sync level 2
[libx264 @ 0x5565f237e100] using SAR=1/1
[libx264 @ 0x5565f237e100] using cpu capabilities: MMX2 SSE2Fast SSSE3 SSE4.2 AVX FMA3 BMI2 AVX2
[libx264 @ 0x5565f237e100] profile High, level 3.1
[libx264 @ 0x5565f237e100] 264 - core 155 r2917 0a84d98 - H.264/MPEG-4 AVC codec - Copyleft 2003-2018 - http://www.videolan.org/x264.html - options: cabac=1 ref=1 deblock=1:0:0 analyse=0x3:0x113 me=hex subme=2 psy=1 psy_rd=1.00:0.00 mixed_ref=0 me_range=16 chroma_me=1 trellis=0 8x8dct=1 cqm=0 deadzone=21,11 fast_pskip=1 chroma_qp_offset=0 threads=22 lookahead_threads=5 sliced_threads=0 nr=0 decimate=1 interlaced=0 bluray_compat=0 constrained_intra=0 bframes=3 b_pyramid=2 b_adapt=1 b_bias=0 direct=1 weightb=1 open_gop=0 weightp=1 keyint=250 keyint_min=25 scenecut=40 intra_refresh=0 rc_lookahead=10 rc=crf mbtree=1 crf=18.0 qcomp=0.60 qpmin=0 qpmax=69 qpstep=4 ip_ratio=1.40 aq=1:1.00
Output #0, mp4, to '/var/www/html/project/media/video/watermarks/5e711bfa-fe93-4078-8cf3-902898038267.mp4':
  Metadata:
    major_brand     : qt  
    minor_version   : 0
    compatible_brands: qt  
    com.apple.quicktime.creationdate: 2025-12-24T09:02:38+01:00
    encoder         : Lavf58.29.100
    Stream #0:0: Video: h264 (libx264), 1 reference frame (avc1 / 0x31637661), yuv420p, 1280x720 [SAR 1:1 DAR 16:9], q=-1--1, 30 fps, 15360 tbn, 30 tbc (default)
    Metadata:
      encoder         : Lavc58.54.100 libx264
    Side data:
      cpb: bitrate max/min/avg: 0/0/0 buffer size: 0 vbv_delay: -1
    Stream #0:1(und): Audio: aac (LC) (mp4a / 0x6134706D), 48000 Hz, stereo, fltp, delay 1024, 128 kb/s (default)
    Metadata:
      creation_time   : 2025-12-24T08:05:24.000000Z
      handler_name    : Core Media Audio
      encoder         : Lavc58.54.100 aac
Past duration 0.866661 too large
Past duration 0.865318 too large
Past duration 0.865990 too large
Past duration 0.867653 too large
Past duration 0.866997 too large
Past duration 0.863319 too large
Past duration 0.868324 too large
Past duration 0.866997 too large
Past duration 0.866325 too large
Past duration 0.869652 too large
Past duration 0.867332 too large
Past duration 0.866325 too large
Past duration 0.868324 too large
Past duration 0.869331 too large
Past duration 0.866661 too large
Past duration 0.868996 too large
Past duration 0.869987 too large
Past duration 0.867332 too large
Past duration 0.869987 too large
Past duration 0.871666 too large
Past duration 0.868996 too large
Past duration 0.871986 too large
Past duration 0.872322 too large
Past duration 0.866325 too large
Past duration 0.871666 too large
Past duration 0.873329 too large
Past duration 0.866997 too large
Past duration 0.873329 too large
Past duration 0.873665 too large
    Last message repeated 1 times
Past duration 0.874321 too large
Past duration 0.873665 too large
Past duration 0.873329 too large
Past duration 0.875664 too large
Past duration 0.875999 too large
Past duration 0.874321 too large
Past duration 0.875999 too large
Past duration 0.876656 too large
    Last message repeated 1 times
[Parsed_overlay_4 @ 0x5565f2a39880] [framesync @ 0x5565f2a399a8] Sync level 0
No more output streams to write to, finishing.
frame= 1186 fps=136 q=-1.0 Lsize=   31316kB time=00:00:39.63 bitrate=6472.4kbits/s speed=4.54x    
[AVIOContext @ 0x5565f231fb40] Statistics: 0 seeks, 18 writeouts
video:30644kB audio:629kB subtitle:0kB other streams:0kB global headers:0kB muxing overhead: 0.139551%
Input file #0 (/var/www/html/project/media/video/original/5e711bfa-fe93-4078-8cf3-902898038267.mov):
  Input stream #0:0 (audio): 1858 packets read (1268455 bytes); 1858 frames decoded (1902592 samples); 
  Input stream #0:1 (video): 1186 packets read (7555177 bytes); 1186 frames decoded; 
  Total: 3044 packets (8823632 bytes) demuxed
Input file #1 (/var/www/html/project/static/images/templates/logo.png):
  Input stream #1:0 (video): 1 packets read (111578 bytes); 1 frames decoded; 
  Total: 1 packets (111578 bytes) demuxed
Output file #0 (/var/www/html/project/media/video/watermarks/5e711bfa-fe93-4078-8cf3-902898038267.mp4):
  Output stream #0:0 (video): 1186 frames encoded; 1186 packets muxed (31379723 bytes); 
  Output stream #0:1 (audio): 1858 frames encoded (1902592 samples); 1859 packets muxed (643599 bytes); 
  Total: 3045 packets (32023322 bytes) muxed
[AVIOContext @ 0x5565f237c200] Statistics: 2 seeks, 126 writeouts
[libx264 @ 0x5565f237e100] frame I:5     Avg QP:16.80  size: 88189
[libx264 @ 0x5565f237e100] frame P:397   Avg QP:19.52  size: 44703
[libx264 @ 0x5565f237e100] frame B:784   Avg QP:21.83  size: 16825
[libx264 @ 0x5565f237e100] consecutive B-frames:  6.3% 11.3% 15.9% 66.4%
[libx264 @ 0x5565f237e100] mb I  I16..4: 14.0% 26.9% 59.1%
[libx264 @ 0x5565f237e100] mb P  I16..4: 13.9% 21.0%  6.4%  P16..4: 23.3% 17.9% 13.6%  0.0%  0.0%    skip: 4.0%
[libx264 @ 0x5565f237e100] mb B  I16..4:  3.9%  3.6%  0.4%  B16..8: 30.7% 16.2%  2.9%  direct:15.9%  skip:26.4%  L0:38.5% L1:40.8% BI:20.6%
[libx264 @ 0x5565f237e100] 8x8 transform intra:49.0% inter:36.9%
[libx264 @ 0x5565f237e100] coded y,uvDC,uvAC intra: 47.8% 56.2% 14.7% inter: 29.1% 22.6% 1.4%
[libx264 @ 0x5565f237e100] i16 v,h,dc,p: 53% 25% 14%  8%
[libx264 @ 0x5565f237e100] i8 v,h,dc,ddl,ddr,vr,hd,vl,hu: 39% 21% 19%  3%  3%  4%  4%  4%  4%
[libx264 @ 0x5565f237e100] i4 v,h,dc,ddl,ddr,vr,hd,vl,hu: 34% 26% 11%  4%  5%  5%  6%  4%  5%
[libx264 @ 0x5565f237e100] i8c dc,h,v,p: 46% 19% 30%  6%
[libx264 @ 0x5565f237e100] Weighted P-Frames: Y:7.1% UV:3.8%
[libx264 @ 0x5565f237e100] kb/s:6328.54
[aac @ 0x5565f23a0680] Qavg: 404.030
[AVIOContext @ 0x5565f2328ac0] Statistics: 76944106 bytes read, 2342 seeks
[AVIOContext @ 0x5565f23250c0] Statistics: 111578 bytes read, 0 seeks
